<?xml version="1.0" standalone="no"?>
<!DOCTYPE svg PUBLIC "-//W3C//DTD SVG 20010904//EN"
 "http://www.w3.org/TR/2001/REC-SVG-20010904/DTD/svg10.dtd">
<svg version="1.0" xmlns="http://www.w3.org/2000/svg"
 width="315.000000pt" height="233.000000pt" viewBox="0 0 315.000000 233.000000"
 preserveAspectRatio="xMidYMid meet">

<g transform="translate(0.000000,233.000000) scale(0.100000,-0.100000)"
fill="#000000" stroke="none">
<path d="M1113 1376 l-28 -24 -3 -424 c-1 -232 0 -433 3 -445 3 -12 15 -32 27
-43 21 -19 34 -20 459 -20 426 0 437 0 463 21 l26 20 0 449 0 449 -26 20 c-26
21 -37 21 -460 21 l-433 0 -28 -24z m539 -309 l-122 -122 85 -85 85 -85 0 -70
0 -70 -157 157 -157 157 124 120 125 120 70 0 70 1 -123 -123z"/>
<path d="M2799 1086 c-7 -20 -16 -35 -19 -33 -74 43 -185 59 -225 33 -15 -10
-25 -26 -25 -41 0 -30 3 -31 40 -4 23 18 39 21 87 17 33 -2 78 -13 101 -25
l43 -21 20 40 c18 36 19 42 6 55 -13 13 -16 11 -28 -21z"/>
<path d="M2450 941 c17 -33 55 -53 172 -92 99 -33 107 -34 95 -15 -9 14 -50
33 -118 56 -58 19 -117 43 -133 53 -27 18 -27 18 -16 -2z"/>
<path d="M2842 801 c-1 -57 -29 -101 -83 -131 -38 -22 -56 -25 -139 -25 -84 0
-102 3 -147 27 -59 30 -62 14 -5 -25 55 -37 106 -50 185 -45 132 7 209 67 209
162 0 25 -5 53 -10 62 -7 13 -10 8 -10 -25z"/>
<path d="M52 254 c-36 -25 -25 -55 31 -82 39 -18 48 -27 45 -45 -3 -19 -9 -22
-51 -22 -26 0 -47 -3 -47 -7 0 -12 41 -20 75 -14 71 14 73 70 3 102 -30 13
-43 25 -43 39 0 16 8 21 45 25 33 4 40 7 27 13 -29 11 -61 8 -85 -9z"/>
<path d="M290 175 c0 -78 3 -95 15 -95 10 0 15 11 15 35 0 30 3 35 25 35 35 0
74 20 80 42 16 48 -21 78 -96 78 l-39 0 0 -95z m104 53 c16 -26 -4 -52 -43
-56 -30 -3 -31 -2 -31 38 0 40 1 41 31 38 18 -2 37 -11 43 -20z"/>
<path d="M550 175 c0 -78 3 -95 15 -95 12 0 15 17 15 95 0 78 -3 95 -15 95
-12 0 -15 -17 -15 -95z"/>
<path d="M744 254 c-48 -23 -67 -80 -43 -126 20 -37 137 -66 154 -38 4 6 -11
10 -38 10 -59 0 -97 29 -97 75 0 46 38 75 97 75 27 0 42 4 38 10 -9 15 -76 12
-111 -6z"/>
<path d="M990 175 l0 -95 65 0 c37 0 65 4 65 10 0 6 -22 10 -50 10 l-50 0 0
35 c0 35 0 35 45 35 25 0 45 5 45 10 0 6 -20 10 -45 10 -43 0 -45 1 -45 30 0
29 2 30 45 30 25 0 45 5 45 10 0 6 -27 10 -60 10 l-60 0 0 -95z"/>
<path d="M1242 254 c-36 -25 -25 -55 31 -82 39 -18 48 -27 45 -45 -3 -19 -9
-22 -51 -22 -26 0 -47 -3 -47 -7 0 -12 41 -20 75 -14 71 14 73 70 3 102 -30
13 -43 25 -43 39 0 16 8 21 45 25 33 4 40 7 27 13 -29 11 -61 8 -85 -9z"/>
<path d="M1630 175 l0 -95 65 0 c37 0 65 4 65 10 0 6 -22 10 -50 10 l-50 0 0
35 c0 35 0 35 45 35 25 0 45 5 45 10 0 6 -20 10 -45 10 -43 0 -45 1 -45 30 0
29 2 30 45 30 25 0 45 5 45 10 0 6 -27 10 -60 10 l-60 0 0 -95z"/>
<path d="M1870 265 c0 -3 13 -24 30 -46 32 -44 32 -45 -13 -101 -25 -33 -26
-38 -10 -38 10 0 29 18 44 41 l27 42 27 -42 c15 -22 34 -41 41 -41 20 0 18 8
-16 50 -16 21 -30 41 -30 45 0 5 10 22 23 39 36 48 40 56 24 56 -8 0 -25 -16
-38 -35 -13 -19 -27 -35 -31 -35 -3 0 -16 16 -28 35 -12 19 -28 35 -36 35 -8
0 -14 -2 -14 -5z"/>
<path d="M2160 175 c0 -78 3 -95 15 -95 10 0 15 11 15 35 0 30 3 35 25 35 35
0 74 20 80 42 16 48 -21 78 -96 78 l-39 0 0 -95z m104 53 c16 -26 -4 -52 -43
-56 -30 -3 -31 -2 -31 38 0 40 1 41 31 38 18 -2 37 -11 43 -20z"/>
<path d="M2420 175 l0 -95 65 0 c37 0 65 4 65 10 0 6 -22 10 -50 10 l-50 0 0
35 c0 35 0 35 45 35 25 0 45 5 45 10 0 6 -20 10 -45 10 -43 0 -45 1 -45 30 0
29 2 30 45 30 25 0 45 5 45 10 0 6 -27 10 -60 10 l-60 0 0 -95z"/>
<path d="M2660 175 c0 -78 3 -95 15 -95 11 0 15 11 15 41 0 39 1 40 32 37 26
-2 33 -9 43 -37 6 -19 17 -37 23 -39 16 -5 15 11 -3 55 -14 33 -14 38 1 54 35
39 -6 79 -83 79 l-43 0 0 -95z m94 69 c19 -7 21 -35 4 -52 -7 -7 -25 -12 -40
-12 -25 0 -28 3 -28 35 0 30 3 35 24 35 13 0 31 -3 40 -6z"/>
<path d="M2900 260 c0 -5 16 -10 35 -10 l35 0 0 -85 c0 -69 3 -85 15 -85 12 0
15 16 15 85 l0 85 35 0 c19 0 35 5 35 10 0 6 -35 10 -85 10 -50 0 -85 -4 -85
-10z"/>
</g>
</svg>
